name C:\Users\u0101727\Documents\MyRepositories\upper-imu-dc\Results\main_tracking\Case_42\FLX01_angularVelocities_groundFrame.mot
datacolumns 4
datarows 94
range 0.51000000 1.44000000
endheader 
time	radius_imu_x	radius_imu_y	radius_imu_z	
          0.51000000	         -0.24456274	         -3.87229763	          0.09284049	
          0.52000000	         -0.29063280	         -3.91256998	          0.08550435	
          0.53000000	         -0.32749830	         -3.92913481	          0.09055313	
          0.54000000	         -0.35587382	         -3.93794639	          0.10567352	
          0.55000000	         -0.37807800	         -3.93933211	          0.12706037	
          0.56000000	         -0.39568194	         -3.93594053	          0.15247641	
          0.57000000	         -0.40995620	         -3.92980188	          0.18039023	
          0.58000000	         -0.42184637	         -3.92302390	          0.20988318	
          0.59000000	         -0.43203115	         -3.91771898	          0.24047992	
          0.60000000	         -0.44096640	         -3.91593214	          0.27201626	
          0.61000000	         -0.44891670	         -3.91960880	          0.30455620	
          0.62000000	         -0.45600680	         -3.93039681	          0.33828660	
          0.63000000	         -0.46226104	         -3.94951770	          0.37344188	
          0.64000000	         -0.46764090	         -3.97769286	          0.41024927	
          0.65000000	         -0.47208271	         -4.01504748	          0.44886533	
          0.66000000	         -0.47551600	         -4.06118258	          0.48935890	
          0.67000000	         -0.47788205	         -4.11523065	          0.53169234	
          0.68000000	         -0.47914865	         -4.17594098	          0.57571831	
          0.69000000	         -0.47932924	         -4.24173590	          0.62117588	
          0.70000000	         -0.47850329	         -4.31075856	          0.66769026	
          0.71000000	         -0.47683355	         -4.38093113	          0.71477890	
          0.72000000	         -0.47457339	         -4.45004650	          0.76186927	
          0.73000000	         -0.47206041	         -4.51589866	          0.80833045	
          0.74000000	         -0.46969613	         -4.57643633	          0.85351555	
          0.75000000	         -0.46791551	         -4.62991405	          0.89680913	
          0.76000000	         -0.46715055	         -4.67501935	          0.93767363	
          0.77000000	         -0.46779156	         -4.71096357	          0.97569096	
          0.78000000	         -0.47014967	         -4.73752948	          1.01059599	
          0.79000000	         -0.47442416	         -4.75507077	          1.04229803	
          0.80000000	         -0.48067764	         -4.76446516	          1.07088811	
          0.81000000	         -0.48882020	         -4.76703082	          1.09663219	
          0.82000000	         -0.49860187	         -4.76442045	          1.11995299	
          0.83000000	         -0.50961285	         -4.75850615	          1.14140394	
          0.84000000	         -0.52129109	         -4.75126388	          1.16163793	
          0.85000000	         -0.53293804	         -4.74466342	          1.18137303	
          0.86000000	         -0.54374276	         -4.74056709	          1.20135614	
          0.87000000	         -0.55281497	         -4.74063924	          1.22232531	
          0.88000000	         -0.55922599	         -4.74626928	          1.24497176	
          0.89000000	         -0.56205573	         -4.75851032	          1.26990140	
          0.90000000	         -0.56044444	         -4.77803989	          1.29760680	
          0.91000000	         -0.55364398	         -4.80510969	          1.32840443	
          0.92000000	         -0.54106729	         -4.83975259	          1.36259431	
          0.93000000	         -0.52233758	         -4.88213349	          1.40087826	
          0.94000000	         -0.49742117	         -4.93161560	          1.44364457	
          0.95000000	         -0.46670881	         -4.98619261	          1.49044858	
          0.96000000	         -0.43104184	         -5.04267250	          1.54000930	
          0.97000000	         -0.39168521	         -5.09762559	          1.59091869	
          0.98000000	         -0.35028111	         -5.14787061	          1.64202155	
          0.99000000	         -0.30878866	         -5.19022055	          1.69204052	
          1.00000000	         -0.26937035	         -5.22162071	          1.73960750	
          1.01000000	         -0.23423083	         -5.23939082	          1.78338547	
          1.02000000	         -0.20544667	         -5.24142897	          1.82217592	
          1.03000000	         -0.18482167	         -5.22634132	          1.85500273	
          1.04000000	         -0.17378685	         -5.19348174	          1.88115859	
          1.05000000	         -0.17334250	         -5.14292025	          1.90021965	
          1.06000000	         -0.18402879	         -5.07537099	          1.91204033	
          1.07000000	         -0.20591907	         -4.99209590	          1.91673487	
          1.08000000	         -0.23864158	         -4.89478528	          1.91464475	
          1.09000000	         -0.28143488	         -4.78541787	          1.90629190	
          1.10000000	         -0.33323055	         -4.66611538	          1.89232315	
          1.11000000	         -0.39274773	         -4.53901194	          1.87345554	
          1.12000000	         -0.45858252	         -4.40615350	          1.85042976	
          1.13000000	         -0.52928123	         -4.26943172	          1.82397567	
          1.14000000	         -0.60339302	         -4.13054900	          1.79479004	
          1.15000000	         -0.67950292	         -3.99100630	          1.76352465	
          1.16000000	         -0.75625195	         -3.85210337	          1.73078085	
          1.17000000	         -0.83235427	         -3.71494097	          1.69710580	
          1.18000000	         -0.90661928	         -3.58041922	          1.66298709	
          1.19000000	         -0.97798026	         -3.44923302	          1.62884492	
          1.20000000	         -1.04552536	         -3.32186900	          1.59502366	
          1.21000000	         -1.10852560	         -3.19860902	          1.56178471	
          1.22000000	         -1.16645396	         -3.07954324	          1.52930305	
          1.23000000	         -1.21898982	         -2.96459507	          1.49766955	
          1.24000000	         -1.26600349	         -2.85355768	          1.46690107	
          1.25000000	         -1.30751924	         -2.74613909	          1.43695857	
          1.26000000	         -1.34366114	         -2.64200949	          1.40777142	
          1.27000000	         -1.37459285	         -2.54084229	          1.37926312	
          1.28000000	         -1.40046543	         -2.44234195	          1.35137258	
          1.29000000	         -1.42138524	         -2.34625501	          1.32406618	
          1.30000000	         -1.43740677	         -2.25236646	          1.29733917	
          1.31000000	         -1.44854468	         -2.16048821	          1.27120960	
          1.32000000	         -1.45479537	         -2.07044649	          1.24570931	
          1.33000000	         -1.45616168	         -1.98207181	          1.22087495	
          1.34000000	         -1.45267805	         -1.89519188	          1.19673962	
          1.35000000	         -1.44443282	         -1.80962809	          1.17332563	
          1.36000000	         -1.43158823	         -1.72519418	          1.15063818	
          1.37000000	         -1.41439389	         -1.64169844	          1.12866140	
          1.38000000	         -1.39322977	         -1.55893638	          1.10734626	
          1.39000000	         -1.36854674	         -1.47672029	          1.08662628	
          1.40000000	         -1.34135203	         -1.39474363	          1.06612585	
          1.41000000	         -1.30703235	         -1.31375139	          1.05168030	
          1.42000000	         -1.27955605	         -1.23149780	          1.02977330	
          1.43000000	         -1.25297284	         -1.14888881	          1.00846558	
          1.44000000	         -1.22565484	         -1.06623888	          0.98905177	
